<?xml version="1.0" encoding="UTF-8"?>
<svg xmlns="http://www.w3.org/2000/svg" viewBox="0 0 1110.5 536.47" width="2400" height="1157.8757875788"><defs><linearGradient id="a" x1="177.71" x2="340.91" y1="389.11" y2="225.9" gradientUnits="userSpaceOnUse"><stop offset="0" stop-color="#b090f5"/><stop offset="1" stop-color="#5fbfff"/></linearGradient><linearGradient id="b" x1="96.28" x2="259.48" y1="305.67" y2="142.47" gradientUnits="userSpaceOnUse"><stop offset="0" stop-color="#68d7fa"/><stop offset="1" stop-color="#4ee498"/></linearGradient></defs><g data-name="Layer 2"><path fill="#29233b" d="M0 0h1110.5v536.47H0z"/><path fill="url(#a)" d="M319.28 208.29l-5-8.78a5.16 5.16 0 0 0-8.12-1.08l-11.48 11.48a5.18 5.18 0 0 0-.64 6.5A89.84 89.84 0 0 1 304 237a90.23 90.23 0 0 1-85.46 119 89.41 89.41 0 0 1-42.26-10.49L195.79 326a64.41 64.41 0 0 0 80.77-88.29 5.17 5.17 0 0 0-8.3-1.41L256.61 248a5.17 5.17 0 0 0-1.38 4.82l1 4.18a38.63 38.63 0 0 1-56.75 42.39l-5.12-2.94a5.15 5.15 0 0 0-6.21.83l-47.5 47.5a5.14 5.14 0 0 0 .51 7.73l7 5.37a114.88 114.88 0 0 0 70.46 23.88 116 116 0 0 0 100.66-173.47z"/><path fill="url(#b)" d="M289.06 173.74a114.89 114.89 0 0 0-70.47-23.88 116 116 0 0 0-100.68 173.43l5 8.78a5.16 5.16 0 0 0 8.12 1.08l11.47-11.48a5.16 5.16 0 0 0 .64-6.5 90.22 90.22 0 0 1-10-20.58 90.2 90.2 0 0 1 85.45-119 89.24 89.24 0 0 1 42.26 10.49l-19.45 19.48a64.39 64.39 0 0 0-87.21 60.23c0 1.07.28 5.95.37 6.79a64.69 64.69 0 0 0 6.07 21.27 5.16 5.16 0 0 0 8.3 1.41l11.65-11.64a5.14 5.14 0 0 0 1.42-4.82l-1-4.18a38.62 38.62 0 0 1 37.61-47.48 38.49 38.49 0 0 1 19.13 5.09l5.13 2.94a5.16 5.16 0 0 0 6.21-.83l47.5-47.5a5.15 5.15 0 0 0-.51-7.73z"/><path fill="#fff" d="M484.33 297.76a4.7 4.7 0 0 0-6.09.14c-7.46 5.78-16.1 11.13-28.73 11.13-23.11 0-41.92-19.47-41.92-43.41S426.32 222 449.34 222c10 0 20.8 4.21 28.75 11.18a4.62 4.62 0 0 0 3.61 1.62 4.1 4.1 0 0 0 3-1.69l7.52-7.75a4.86 4.86 0 0 0 1.46-3.58 4.94 4.94 0 0 0-1.71-3.54c-13.1-11.44-26.29-16.54-42.78-16.54-35.2 0-63.84 28.82-63.84 64.24a63.94 63.94 0 0 0 63.84 63.89 60.34 60.34 0 0 0 43-17.3 5.31 5.31 0 0 0 1.51-3.85 4.2 4.2 0 0 0-1.35-3zM539.06 203.46h-11.39a5 5 0 0 0-4.83 4.85v115a5 5 0 0 0 4.83 4.86h11.39a5 5 0 0 0 4.83-4.86v-115a5 5 0 0 0-4.83-4.85zM673.81 242.17c0-21.34-17.57-38.71-39.17-38.71h-46.93a4.85 4.85 0 0 0-4.83 4.85v115a4.85 4.85 0 0 0 4.83 4.86h11.22a5 5 0 0 0 4.83-4.86v-42.77h23.53l22.52 45.15a4.75 4.75 0 0 0 4.15 2.43h13.46a4.84 4.84 0 0 0 4.28-2.29 5.16 5.16 0 0 0 0-5l-22.83-42.6c15.44-6.91 24.94-20.57 24.94-36.06zm-21 .35c0 10.83-8.93 20-19.5 20H604.1v-39.11h29.16c10.57 0 19.5 8.75 19.5 19.11zM796.44 297.76a4.7 4.7 0 0 0-6.09.14c-7.46 5.78-16.1 11.13-28.73 11.13-23.11 0-41.92-19.47-41.92-43.41S738.43 222 761.45 222c10 0 20.8 4.21 28.75 11.18a4.61 4.61 0 0 0 3.61 1.62 4.08 4.08 0 0 0 3-1.69l7.53-7.75a4.86 4.86 0 0 0 1.46-3.58 4.91 4.91 0 0 0-1.72-3.54c-13.09-11.44-26.28-16.54-42.77-16.54-35.2 0-63.84 28.82-63.84 64.24a63.94 63.94 0 0 0 63.84 63.89 60.35 60.35 0 0 0 43-17.3 5.31 5.31 0 0 0 1.51-3.85 4.2 4.2 0 0 0-1.35-3zM901.2 308.86H856V208.31a5 5 0 0 0-4.83-4.85h-11.39a4.84 4.84 0 0 0-4.83 4.85v115a4.85 4.85 0 0 0 4.83 4.86h61.42a4.85 4.85 0 0 0 4.84-4.86v-9.55a4.85 4.85 0 0 0-4.84-4.9zM1003.51 222.89a4.85 4.85 0 0 0 4.84-4.85v-9.73a4.85 4.85 0 0 0-4.84-4.85h-69a4.84 4.84 0 0 0-4.83 4.85v115a4.85 4.85 0 0 0 4.83 4.86h69a4.85 4.85 0 0 0 4.84-4.86v-9.55a4.85 4.85 0 0 0-4.84-4.85h-53v-34.27h44.51a4.85 4.85 0 0 0 4.83-4.86v-9.72a5 5 0 0 0-4.83-4.85h-44.47v-32.32z"/></g></svg>
